<svg width="768" height="178" viewBox="0 0 768 178" fill="none" xmlns="http://www.w3.org/2000/svg">
<g clip-path="url(#clip0_397_42)">
<path d="M100.478 113.612C100.218 131.252 95.8181 145.256 81.8317 145.256C70.181 145.256 63.4452 135.92 63.4452 116.722V106.345C56.4547 132.023 43.2433 145.25 26.412 145.25C9.58072 145.25 0 131.507 0 115.164C0 83.0001 34.9631 67.9545 63.4452 54.2117V39.4267C63.4452 16.8584 55.1596 8.81998 41.4334 8.81998C30.2974 8.81998 21.7517 14.2694 21.7517 23.8655C21.7517 30.0911 25.377 32.425 25.377 37.8743C25.377 43.3237 22.2719 46.9549 16.5712 46.9549C9.58072 46.9549 5.95544 40.9898 5.95544 32.6909C5.95544 14.5245 22.2719 0 44.0236 0C63.4452 0 77.6916 11.6749 77.6916 39.1661V118.796C77.6916 133.06 81.0568 136.175 85.2023 136.175C90.643 136.175 94.783 130.986 95.0432 113.607H100.484L100.478 113.612ZM63.4452 92.6016V61.7344C40.1382 74.1855 15.0159 86.8971 15.0159 111.539C15.0159 123.208 20.1965 132.028 30.8122 132.028C42.4684 132.028 55.4143 120.874 63.4398 92.6016H63.4452Z" fill="#C70100"/>
<path d="M244.205 10.1171C233.329 10.1171 229.444 12.972 225.299 28.5332L193.186 143.443H184.9L162.368 52.3987L138.541 143.443H129.475L97.3623 28.5332C92.9621 12.972 89.3368 10.1171 77.6807 10.1171V4.66766H120.929V10.1171C107.983 10.1171 108.758 12.972 112.904 28.5332L136.731 115.685H137.506L158.483 36.0559L156.667 28.7937C152.782 13.2325 149.417 10.1171 139.576 10.1171V4.66766H182.825V10.1171C168.324 10.1171 168.324 13.2271 171.949 28.7937L191.891 115.685H192.666L216.493 28.5332C220.893 12.972 220.893 10.1171 203.547 10.1171V4.66766H244.205V10.1171Z" fill="#C70100"/>
<path d="M318.006 86.376C313.861 127.615 297.03 145.255 276.313 145.255C249.641 145.255 234.099 115.946 234.099 74.9615C234.099 33.9771 250.156 0.260406 277.348 0.260406C302.21 0.260406 316.451 26.4598 316.451 65.1049H249.12V70.0332C249.12 104.01 260.517 132.028 280.973 132.028C292.884 132.028 306.61 121.911 312.566 86.376H318.006ZM249.641 56.2849H301.175C301.175 32.6799 294.959 9.07496 277.608 9.07496C260.256 9.07496 251.971 30.8617 249.641 56.2849Z" fill="#C70100"/>
<path d="M315.931 118.019C315.931 112.315 319.296 109.199 323.701 109.199C327.847 109.199 328.882 112.309 330.952 118.796C334.577 129.949 340.793 136.951 353.484 136.951C367.47 136.951 374.461 126.318 374.461 112.309C374.461 103.229 371.096 95.9667 365.655 87.1467L357.884 73.6589C348.304 57.8373 343.643 49.0173 343.643 37.6029C343.643 16.0767 360.995 0.77066 382.232 0.77066C399.843 0.77066 409.939 12.9612 409.939 21.2601C409.939 26.7095 406.053 29.8196 402.168 29.8196C398.023 29.8196 396.473 26.1885 394.917 21.5207C392.067 13.9979 388.187 8.03289 377.306 8.03289C365.135 8.03289 356.849 16.0713 356.849 30.3406C356.849 38.9001 360.475 48.2357 366.43 58.0924L373.941 71.3196C383.781 88.4385 387.667 94.9246 387.667 105.818C387.667 128.641 371.61 144.468 350.119 144.468C328.627 144.468 315.936 130.72 315.936 118.014L315.931 118.019Z" fill="#C70100"/>
<path d="M400.093 105.053C400.093 55.7692 437.387 1.0419 471.829 1.0419C490.991 1.0419 502.387 17.3846 502.387 41.5053C502.387 90.5281 464.839 144.479 430.136 144.479C410.975 144.479 400.093 129.173 400.093 105.053ZM487.366 40.7237C487.366 22.5681 481.41 9.85645 467.684 9.85645C443.857 9.85645 415.115 61.9947 415.115 105.568C415.115 123.463 420.555 135.659 434.276 135.659C458.103 135.659 487.366 84.563 487.366 40.7237Z" fill="#C70100"/>
<path d="M504.196 141.103L540.709 34.7589C543.039 28.0123 545.89 19.4528 545.89 16.3427C545.89 12.4511 544.335 11.4144 542.004 11.4144C533.199 11.4144 519.993 28.2728 511.187 43.8394H505.746C516.362 23.3499 533.973 1.81828 550.29 1.81828C557.02 1.81828 560.391 7.26767 560.391 13.4932C560.391 18.9426 557.801 25.9443 554.696 34.7643L537.604 81.9742H539.674C568.162 21.7976 585.768 1.30807 602.865 1.30807C611.15 1.30807 616.071 7.79415 616.071 16.8692C616.071 31.9148 603.9 55.5197 592.244 81.9742H594.059C622.546 21.7976 642.743 1.30807 660.094 1.30807C669.675 1.30807 674.856 7.53362 674.856 17.3903C674.856 38.6614 652.844 79.9009 639.378 113.362C638.083 117.254 635.752 122.959 635.752 126.329C635.752 130.221 636.787 132.815 640.933 132.815C651.549 132.815 663.205 114.92 672.265 95.2069H677.706C668.64 117.515 652.069 142.672 634.717 142.672C624.616 142.672 620.991 136.967 620.991 129.184C620.991 124.516 623.321 118.806 625.391 113.102C640.153 75.7487 658.799 36.8431 658.799 22.8342C658.799 16.3482 656.729 13.2381 652.584 13.2381C643.003 13.2381 623.321 31.9148 597.424 85.0897C589.913 100.651 582.143 119.328 573.597 141.114H558.836L581.368 83.0109C591.209 57.5931 601.57 33.2065 601.57 22.8342C601.57 16.3482 599.5 13.2381 595.354 13.2381C583.183 13.2381 556.766 44.3658 518.958 141.114H504.196V141.103Z" fill="#C70100"/>
<path d="M767.823 86.376C763.678 127.615 746.846 145.255 726.13 145.255C699.458 145.255 683.916 115.946 683.916 74.9615C683.916 33.9771 699.972 0.260406 727.165 0.260406C752.027 0.260406 766.268 26.4598 766.268 65.1049H698.937V70.0332C698.937 104.01 710.333 132.028 730.79 132.028C742.701 132.028 756.427 121.911 762.383 86.376H767.823ZM699.458 56.2849H750.992C750.992 32.6799 744.776 9.07496 727.425 9.07496C710.073 9.07496 701.788 30.8617 699.458 56.2849Z" fill="#C70100"/>
<path d="M279.661 177.99C284.898 177.99 289.144 173.737 289.144 168.491C289.144 163.245 284.898 158.993 279.661 158.993C274.424 158.993 270.178 163.245 270.178 168.491C270.178 173.737 274.424 177.99 279.661 177.99Z" fill="#C70100"/>
</g>
<defs>
<clipPath id="clip0_397_42">
<rect width="767.823" height="177.704" fill="white"/>
</clipPath>
</defs>
</svg>
